<mxfile host="Electron" agent="Mozilla/5.0 (Windows NT 10.0; WOW64) AppleWebKit/537.36 (KHTML, like Gecko) draw.io/24.7.8 Chrome/128.0.6613.36 Electron/32.0.1 Safari/537.36" version="24.7.8">
  <diagram name="Page-1" id="Dz2OsIJfxeOvgxbdGt8w">
    <mxGraphModel dx="915" dy="683" grid="1" gridSize="10" guides="1" tooltips="1" connect="1" arrows="1" fold="1" page="1" pageScale="1" pageWidth="850" pageHeight="1100" math="0" shadow="0">
      <root>
        <mxCell id="0" />
        <mxCell id="1" parent="0" />
        <mxCell id="fmkvdyVzabHfkykPkDL2-14" style="edgeStyle=orthogonalEdgeStyle;rounded=0;orthogonalLoop=1;jettySize=auto;html=1;entryX=0.5;entryY=0;entryDx=0;entryDy=0;exitX=0.5;exitY=0;exitDx=0;exitDy=0;" edge="1" parent="1" source="bf_4v88Hokyu0CsVoKxj-4" target="bf_4v88Hokyu0CsVoKxj-10">
          <mxGeometry relative="1" as="geometry" />
        </mxCell>
        <mxCell id="fmkvdyVzabHfkykPkDL2-15" value="Implicit dependency of" style="edgeLabel;html=1;align=center;verticalAlign=middle;resizable=0;points=[];" vertex="1" connectable="0" parent="fmkvdyVzabHfkykPkDL2-14">
          <mxGeometry x="-0.1674" y="-1" relative="1" as="geometry">
            <mxPoint x="32" y="1" as="offset" />
          </mxGeometry>
        </mxCell>
        <mxCell id="bf_4v88Hokyu0CsVoKxj-4" value="Nx frontend App" style="swimlane;fontStyle=0;childLayout=stackLayout;horizontal=1;startSize=30;horizontalStack=0;resizeParent=1;resizeParentMax=0;resizeLast=0;collapsible=1;marginBottom=0;whiteSpace=wrap;html=1;" parent="1" vertex="1">
          <mxGeometry x="230" y="320" width="140" height="150" as="geometry" />
        </mxCell>
        <mxCell id="bf_4v88Hokyu0CsVoKxj-25" value="serve" style="text;strokeColor=#d6b656;fillColor=#fff2cc;align=left;verticalAlign=middle;spacingLeft=4;spacingRight=4;overflow=hidden;points=[[0,0.5],[1,0.5]];portConstraint=eastwest;rotatable=0;whiteSpace=wrap;html=1;" parent="bf_4v88Hokyu0CsVoKxj-4" vertex="1">
          <mxGeometry y="30" width="140" height="30" as="geometry" />
        </mxCell>
        <mxCell id="bf_4v88Hokyu0CsVoKxj-5" value="test" style="text;strokeColor=#2D7600;fillColor=#60a917;align=left;verticalAlign=middle;spacingLeft=4;spacingRight=4;overflow=hidden;points=[[0,0.5],[1,0.5]];portConstraint=eastwest;rotatable=0;whiteSpace=wrap;html=1;fontColor=#ffffff;" parent="bf_4v88Hokyu0CsVoKxj-4" vertex="1">
          <mxGeometry y="60" width="140" height="30" as="geometry" />
        </mxCell>
        <mxCell id="bf_4v88Hokyu0CsVoKxj-7" value="lint" style="text;strokeColor=#36393d;fillColor=#cce5ff;align=left;verticalAlign=middle;spacingLeft=4;spacingRight=4;overflow=hidden;points=[[0,0.5],[1,0.5]];portConstraint=eastwest;rotatable=0;whiteSpace=wrap;html=1;" parent="bf_4v88Hokyu0CsVoKxj-4" vertex="1">
          <mxGeometry y="90" width="140" height="30" as="geometry" />
        </mxCell>
        <mxCell id="bf_4v88Hokyu0CsVoKxj-6" value="build" style="text;strokeColor=#006EAF;fillColor=#1ba1e2;align=left;verticalAlign=middle;spacingLeft=4;spacingRight=4;overflow=hidden;points=[[0,0.5],[1,0.5]];portConstraint=eastwest;rotatable=0;whiteSpace=wrap;html=1;fontColor=#ffffff;" parent="bf_4v88Hokyu0CsVoKxj-4" vertex="1">
          <mxGeometry y="120" width="140" height="30" as="geometry" />
        </mxCell>
        <mxCell id="bf_4v88Hokyu0CsVoKxj-10" value="Nx vite electron for App" style="swimlane;fontStyle=0;childLayout=stackLayout;horizontal=1;startSize=30;horizontalStack=0;resizeParent=1;resizeParentMax=0;resizeLast=0;collapsible=1;marginBottom=0;whiteSpace=wrap;html=1;" parent="1" vertex="1">
          <mxGeometry x="460" y="320" width="140" height="180" as="geometry" />
        </mxCell>
        <mxCell id="bf_4v88Hokyu0CsVoKxj-29" style="edgeStyle=orthogonalEdgeStyle;rounded=0;orthogonalLoop=1;jettySize=auto;html=1;entryX=1;entryY=0.5;entryDx=0;entryDy=0;fillColor=#1ba1e2;strokeColor=#006EAF;flowAnimation=1;dashed=1;" parent="bf_4v88Hokyu0CsVoKxj-10" source="bf_4v88Hokyu0CsVoKxj-14" target="bf_4v88Hokyu0CsVoKxj-18" edge="1">
          <mxGeometry relative="1" as="geometry">
            <Array as="points">
              <mxPoint x="160" y="130" />
              <mxPoint x="160" y="165" />
            </Array>
          </mxGeometry>
        </mxCell>
        <mxCell id="bf_4v88Hokyu0CsVoKxj-20" value="serve" style="text;strokeColor=#d79b00;fillColor=#ffe6cc;align=left;verticalAlign=middle;spacingLeft=4;spacingRight=4;overflow=hidden;points=[[0,0.5],[1,0.5]];portConstraint=eastwest;rotatable=0;whiteSpace=wrap;html=1;" parent="bf_4v88Hokyu0CsVoKxj-10" vertex="1">
          <mxGeometry y="30" width="140" height="30" as="geometry" />
        </mxCell>
        <mxCell id="bf_4v88Hokyu0CsVoKxj-17" value="test&amp;nbsp;" style="text;strokeColor=#2D7600;fillColor=#60a917;align=left;verticalAlign=middle;spacingLeft=4;spacingRight=4;overflow=hidden;points=[[0,0.5],[1,0.5]];portConstraint=eastwest;rotatable=0;whiteSpace=wrap;html=1;fontColor=#ffffff;" parent="bf_4v88Hokyu0CsVoKxj-10" vertex="1">
          <mxGeometry y="60" width="140" height="30" as="geometry" />
        </mxCell>
        <mxCell id="bf_4v88Hokyu0CsVoKxj-15" value="lint" style="text;strokeColor=#36393d;fillColor=#cce5ff;align=left;verticalAlign=middle;spacingLeft=4;spacingRight=4;overflow=hidden;points=[[0,0.5],[1,0.5]];portConstraint=eastwest;rotatable=0;whiteSpace=wrap;html=1;" parent="bf_4v88Hokyu0CsVoKxj-10" vertex="1">
          <mxGeometry y="90" width="140" height="30" as="geometry" />
        </mxCell>
        <mxCell id="bf_4v88Hokyu0CsVoKxj-14" value="build" style="text;strokeColor=#006EAF;fillColor=#1ba1e2;align=left;verticalAlign=middle;spacingLeft=4;spacingRight=4;overflow=hidden;points=[[0,0.5],[1,0.5]];portConstraint=eastwest;rotatable=0;whiteSpace=wrap;html=1;fontColor=#ffffff;" parent="bf_4v88Hokyu0CsVoKxj-10" vertex="1">
          <mxGeometry y="120" width="140" height="30" as="geometry" />
        </mxCell>
        <mxCell id="bf_4v88Hokyu0CsVoKxj-18" value="icons" style="text;strokeColor=#b85450;fillColor=#f8cecc;align=left;verticalAlign=middle;spacingLeft=4;spacingRight=4;overflow=hidden;points=[[0,0.5],[1,0.5]];portConstraint=eastwest;rotatable=0;whiteSpace=wrap;html=1;" parent="bf_4v88Hokyu0CsVoKxj-10" vertex="1">
          <mxGeometry y="150" width="140" height="30" as="geometry" />
        </mxCell>
        <mxCell id="bf_4v88Hokyu0CsVoKxj-31" style="edgeStyle=orthogonalEdgeStyle;rounded=0;orthogonalLoop=1;jettySize=auto;html=1;fillColor=#fff2cc;strokeColor=#d6b656;" parent="1" source="bf_4v88Hokyu0CsVoKxj-20" target="bf_4v88Hokyu0CsVoKxj-25" edge="1">
          <mxGeometry relative="1" as="geometry" />
        </mxCell>
        <mxCell id="bf_4v88Hokyu0CsVoKxj-32" style="edgeStyle=orthogonalEdgeStyle;rounded=0;orthogonalLoop=1;jettySize=auto;html=1;" parent="1" source="bf_4v88Hokyu0CsVoKxj-17" target="bf_4v88Hokyu0CsVoKxj-5" edge="1">
          <mxGeometry relative="1" as="geometry" />
        </mxCell>
        <mxCell id="bf_4v88Hokyu0CsVoKxj-33" style="edgeStyle=orthogonalEdgeStyle;rounded=0;orthogonalLoop=1;jettySize=auto;html=1;entryX=1;entryY=0.5;entryDx=0;entryDy=0;" parent="1" source="bf_4v88Hokyu0CsVoKxj-15" target="bf_4v88Hokyu0CsVoKxj-7" edge="1">
          <mxGeometry relative="1" as="geometry" />
        </mxCell>
        <mxCell id="bf_4v88Hokyu0CsVoKxj-34" style="edgeStyle=orthogonalEdgeStyle;rounded=0;orthogonalLoop=1;jettySize=auto;html=1;entryX=1;entryY=0.5;entryDx=0;entryDy=0;" parent="1" source="bf_4v88Hokyu0CsVoKxj-14" target="bf_4v88Hokyu0CsVoKxj-6" edge="1">
          <mxGeometry relative="1" as="geometry" />
        </mxCell>
        <mxCell id="fmkvdyVzabHfkykPkDL2-1" value="Serving process" style="swimlane;whiteSpace=wrap;html=1;" vertex="1" parent="1">
          <mxGeometry x="660" y="240" width="200" height="90" as="geometry" />
        </mxCell>
        <mxCell id="fmkvdyVzabHfkykPkDL2-5" value="&lt;font style=&quot;font-size: 8px;&quot;&gt;&lt;span style=&quot;background-color: initial;&quot;&gt;serve the dependency first&lt;/span&gt;&lt;br&gt;&lt;span style=&quot;background-color: initial;&quot;&gt;await for port to be active&lt;/span&gt;&lt;br&gt;&lt;span style=&quot;background-color: initial;&quot;&gt;then run the electron app listening to that port&lt;/span&gt;&lt;/font&gt;" style="text;html=1;align=left;verticalAlign=top;whiteSpace=wrap;rounded=0;spacing=0;" vertex="1" parent="fmkvdyVzabHfkykPkDL2-1">
          <mxGeometry x="10" y="35" width="180" height="55" as="geometry" />
        </mxCell>
        <mxCell id="fmkvdyVzabHfkykPkDL2-2" style="edgeStyle=orthogonalEdgeStyle;rounded=0;orthogonalLoop=1;jettySize=auto;html=1;entryX=0;entryY=0.5;entryDx=0;entryDy=0;" edge="1" parent="1" source="bf_4v88Hokyu0CsVoKxj-20" target="fmkvdyVzabHfkykPkDL2-1">
          <mxGeometry relative="1" as="geometry" />
        </mxCell>
        <mxCell id="fmkvdyVzabHfkykPkDL2-8" value="Test Process" style="swimlane;whiteSpace=wrap;html=1;" vertex="1" parent="1">
          <mxGeometry x="660" y="340" width="200" height="60" as="geometry" />
        </mxCell>
        <mxCell id="fmkvdyVzabHfkykPkDL2-9" value="&lt;span style=&quot;font-size: 8px;&quot;&gt;depends on [&#39;^test&#39;]&lt;/span&gt;" style="text;html=1;align=left;verticalAlign=top;whiteSpace=wrap;rounded=0;spacing=0;" vertex="1" parent="fmkvdyVzabHfkykPkDL2-8">
          <mxGeometry x="10" y="30" width="180" height="25" as="geometry" />
        </mxCell>
        <mxCell id="fmkvdyVzabHfkykPkDL2-10" style="edgeStyle=orthogonalEdgeStyle;rounded=0;orthogonalLoop=1;jettySize=auto;html=1;entryX=0;entryY=0.5;entryDx=0;entryDy=0;" edge="1" parent="1" source="bf_4v88Hokyu0CsVoKxj-17" target="fmkvdyVzabHfkykPkDL2-8">
          <mxGeometry relative="1" as="geometry" />
        </mxCell>
        <mxCell id="fmkvdyVzabHfkykPkDL2-11" value="Lint Process" style="swimlane;whiteSpace=wrap;html=1;" vertex="1" parent="1">
          <mxGeometry x="660" y="410" width="200" height="60" as="geometry" />
        </mxCell>
        <mxCell id="fmkvdyVzabHfkykPkDL2-12" value="&lt;span style=&quot;font-size: 8px;&quot;&gt;depends on [&#39;^lint&#39;]&lt;/span&gt;" style="text;html=1;align=left;verticalAlign=top;whiteSpace=wrap;rounded=0;spacing=0;" vertex="1" parent="fmkvdyVzabHfkykPkDL2-11">
          <mxGeometry x="10" y="30" width="180" height="25" as="geometry" />
        </mxCell>
        <mxCell id="fmkvdyVzabHfkykPkDL2-13" style="edgeStyle=orthogonalEdgeStyle;rounded=0;orthogonalLoop=1;jettySize=auto;html=1;entryX=0;entryY=0.5;entryDx=0;entryDy=0;" edge="1" parent="1" source="bf_4v88Hokyu0CsVoKxj-15" target="fmkvdyVzabHfkykPkDL2-11">
          <mxGeometry relative="1" as="geometry" />
        </mxCell>
      </root>
    </mxGraphModel>
  </diagram>
</mxfile>
